<?xml version="1.0" standalone="no"?>
<!DOCTYPE svg PUBLIC "-//W3C//DTD SVG 20010904//EN"
 "http://www.w3.org/TR/2001/REC-SVG-20010904/DTD/svg10.dtd">
<svg version="1.0" xmlns="http://www.w3.org/2000/svg"
 width="4096.000000pt" height="4096.000000pt" viewBox="0 0 4096.000000 4096.000000"
 preserveAspectRatio="xMidYMid meet">

<g transform="translate(0.000000,4096.000000) scale(0.100000,-0.100000)"
fill="#000000" stroke="none">
<path d="M19255 27080 c-354 -10 -575 -37 -846 -100 -582 -137 -1017 -362
-1509 -779 -484 -411 -850 -911 -1104 -1509 -138 -323 -224 -667 -261 -1041
-11 -118 -15 -290 -15 -732 l0 -579 -809 0 -808 0 -7 -46 c-9 -72 -7 -571 4
-734 42 -630 226 -1159 578 -1665 157 -225 405 -486 663 -697 333 -272 854
-540 1289 -663 293 -82 517 -115 832 -122 364 -8 590 17 923 102 808 206 1411
582 1954 1218 97 114 259 324 334 435 l37 54 22 -39 c12 -21 69 -108 126 -192
250 -372 466 -616 737 -832 238 -190 586 -388 900 -512 455 -180 996 -270
1438 -239 1018 72 1916 518 2553 1270 412 487 693 1125 771 1754 12 101 16
225 17 515 1 210 -3 385 -7 390 -5 4 -384 7 -844 6 l-835 -2 6 57 c34 310 47
893 26 1147 -50 585 -231 1165 -515 1641 -177 298 -451 637 -712 881 -561 525
-1161 820 -1938 953 -368 63 -353 62 -1600 65 -627 1 -1257 -1 -1400 -5z
m2735 -633 c262 -35 457 -76 600 -125 284 -99 684 -309 911 -478 202 -150 468
-419 638 -644 379 -503 562 -985 662 -1745 18 -136 23 -221 23 -425 1 -278 -6
-329 -75 -585 l-30 -110 -4279 -3 -4278 -3 -2 583 c-1 718 7 829 86 1143 140
558 483 1146 900 1544 278 265 576 465 920 617 320 142 559 202 899 225 210
14 1451 27 2265 24 506 -3 670 -6 760 -18z m4484 -4757 c8 -8 -30 -211 -68
-365 -67 -273 -142 -476 -266 -725 -154 -310 -291 -503 -524 -735 -378 -377
-690 -556 -1256 -720 -311 -90 -457 -110 -805 -110 -298 0 -375 8 -607 60
-351 79 -723 251 -1048 483 -355 255 -525 449 -809 930 l-102 172 -523 0
c-402 0 -526 -3 -538 -12 -9 -7 -28 -42 -43 -78 -175 -427 -497 -811 -910
-1087 -332 -222 -840 -410 -1253 -463 -187 -24 -477 -27 -670 -5 -455 51 -891
211 -1272 466 -286 192 -486 374 -688 628 -260 325 -415 647 -522 1086 -34
140 -73 349 -82 440 l-3 30 2855 5 c3557 7 9127 7 9134 0z"/>
<path d="M18995 25539 c-299 -32 -514 -84 -707 -173 -299 -136 -617 -431 -860
-796 -113 -170 -271 -486 -326 -651 -72 -217 -83 -291 -89 -575 l-5 -251 213
-5 c118 -3 218 -2 222 2 5 4 21 43 37 86 155 434 201 549 291 726 102 200 291
484 429 643 120 140 693 722 815 828 102 89 165 150 176 170 12 20 28 21 -196
-4z"/>
<path d="M24885 20856 c-446 -151 -764 -217 -1250 -263 -151 -14 -287 -18
-668 -18 -370 0 -476 -3 -473 -12 31 -79 227 -304 351 -403 282 -225 775 -289
1269 -164 411 103 748 329 916 615 82 137 131 320 86 319 -6 0 -110 -34 -231
-74z"/>
<path d="M15283 16989 c-214 -27 -481 -125 -670 -246 -344 -217 -630 -655
-710 -1085 -25 -131 -24 -421 0 -538 71 -337 247 -669 455 -860 276 -254 644
-411 1033 -440 473 -35 1002 168 1317 504 277 297 415 643 415 1046 0 166 -17
283 -69 465 -74 255 -202 464 -413 676 -222 221 -455 360 -741 439 -159 44
-441 62 -617 39z m420 -630 c287 -58 528 -240 661 -499 161 -312 153 -719 -18
-994 -187 -299 -513 -461 -893 -443 -151 7 -272 40 -418 112 -309 154 -488
435 -502 792 -8 192 20 357 87 514 109 256 369 451 685 513 164 32 263 33 398
5z"/>
<path d="M28720 16985 c-219 -27 -358 -68 -542 -160 -246 -123 -418 -274 -570
-500 -122 -181 -199 -365 -245 -584 -23 -112 -26 -148 -26 -321 0 -216 16
-321 75 -490 91 -258 286 -544 495 -725 282 -243 622 -382 980 -401 443 -24
951 181 1283 516 239 242 378 520 425 851 33 235 3 512 -85 764 -129 374 -433
718 -784 889 -299 145 -663 203 -1006 161z m368 -606 c235 -26 475 -147 643
-326 104 -111 175 -244 216 -409 24 -96 24 -364 0 -450 -85 -304 -339 -600
-613 -714 -263 -109 -546 -99 -809 30 -207 101 -367 266 -471 485 -139 291
-99 693 95 980 88 130 263 277 401 337 155 68 332 90 538 67z"/>
<path d="M11705 16971 c-329 -62 -629 -201 -865 -399 -263 -221 -420 -493
-492 -853 -32 -162 -33 -449 -1 -592 115 -509 422 -911 872 -1141 271 -138
571 -198 841 -167 612 70 1109 475 1304 1062 52 156 67 257 73 500 l6 217
-704 7 c-387 3 -748 5 -803 3 l-98 -3 1 -255 c1 -140 5 -258 9 -262 4 -3 222
-3 485 0 262 4 477 3 477 -1 0 -16 -54 -114 -107 -197 -98 -151 -226 -267
-378 -343 -304 -152 -652 -139 -931 35 -71 44 -202 177 -257 261 -58 88 -116
212 -139 296 -29 110 -35 309 -13 426 64 345 252 609 530 746 133 65 353 108
480 94 246 -27 493 -156 649 -340 65 -78 191 -262 212 -312 8 -18 20 -33 27
-33 6 0 51 62 99 138 48 76 123 187 169 247 45 61 86 120 91 131 23 51 -264
373 -447 503 -154 108 -321 180 -520 222 -146 31 -432 36 -570 10z"/>
<path d="M20635 16949 c-126 -5 -236 -11 -242 -14 -10 -3 -13 -319 -13 -1535
l0 -1530 323 2 322 3 -4 520 c-2 286 0 553 4 593 l7 72 62 0 c35 0 69 -6 78
-12 20 -17 115 -161 203 -308 155 -260 508 -803 539 -829 23 -19 696 -29 696
-10 0 7 -55 96 -123 198 -253 381 -561 887 -562 923 0 4 39 31 87 60 237 145
390 329 442 533 81 316 6 707 -181 953 -127 166 -385 311 -657 368 -90 19
-644 26 -981 13z m795 -540 c93 -15 198 -68 276 -141 108 -102 151 -215 142
-381 -8 -156 -81 -252 -253 -333 -125 -59 -197 -74 -397 -81 l-168 -6 0 477 0
476 168 0 c92 0 196 -5 232 -11z"/>
<path d="M17660 15426 l0 -1526 324 0 c250 0 325 3 329 13 3 6 2 254 -1 550
l-5 537 24 0 c13 0 51 -5 84 -12 33 -6 85 -12 114 -12 l55 -1 78 -145 c43 -80
164 -314 269 -520 105 -206 197 -383 204 -394 8 -10 33 -22 57 -27 46 -9 658
-12 658 -4 0 3 -133 271 -295 595 -162 325 -295 594 -295 600 0 5 30 32 66 59
250 189 371 390 420 691 42 259 1 495 -118 676 -118 183 -285 308 -505 379
-165 54 -210 58 -860 62 l-603 5 0 -1526z m1081 970 c186 -33 304 -152 345
-346 28 -133 1 -311 -63 -403 -15 -22 -54 -57 -86 -78 -88 -57 -157 -69 -406
-69 l-211 0 0 455 0 455 173 0 c98 -1 204 -6 248 -14z m-203 -1368 c7 -7 12
-18 12 -25 0 -15 -48 -17 -70 -3 -13 9 -12 12 4 25 24 18 38 19 54 3z"/>
<path d="M24890 16930 c-157 -4 -293 -11 -302 -15 -45 -18 -19 -48 294 -337
125 -116 228 -214 228 -217 0 -4 -15 -36 -34 -71 -19 -36 -48 -103 -64 -150
-130 -369 -420 -1108 -624 -1590 -47 -110 -214 -473 -264 -573 -19 -37 -34
-72 -34 -78 0 -11 679 -12 696 -1 7 4 41 88 77 187 36 99 86 232 111 295 l45
115 610 3 c336 1 611 0 611 -2 0 -10 193 -562 198 -568 9 -9 719 -15 728 -6 3
4 -7 32 -24 62 -51 90 -332 709 -332 731 0 7 -155 380 -270 650 -170 400 -370
895 -370 917 0 7 113 146 251 308 255 299 276 327 264 338 -9 10 -1449 11
-1795 2z m750 -882 c4 -13 87 -228 183 -478 96 -250 178 -462 182 -472 6 -15
-24 -16 -380 -15 -338 2 -385 4 -381 17 3 8 39 101 81 205 191 478 295 743
295 754 0 18 10 13 20 -11z"/>
<path d="M23045 15493 c4 -791 9 -1469 11 -1508 2 -38 3 -76 3 -82 1 -10 70
-13 311 -13 l310 0 0 1520 0 1520 -321 0 -322 0 8 -1437z"/>
</g>
</svg>
